<?xml version="1.0" encoding="UTF-8"?>
<svg version="1.1" xmlns="http://www.w3.org/2000/svg" width="128" height="128">
<path d="M0 0 C3 2 3 2 5 5 C5 7.66666667 5 10.33333333 5 13 C7.66057462 16.57224681 9.18942806 17.85114294 13.609375 18.6628418 C14.98907288 18.70228594 16.36980667 18.71294586 17.75 18.69921875 C18.85359863 18.70995171 18.85359863 18.70995171 19.97949219 18.72090149 C21.5292846 18.72865826 23.07918681 18.72370896 24.62890625 18.70678711 C26.99429122 18.68754644 29.35380536 18.72696951 31.71875 18.77148438 C33.22917015 18.77177475 34.73959566 18.76863441 36.25 18.76171875 C37.3033252 18.78464241 37.3033252 18.78464241 38.37792969 18.80802917 C41.16668457 18.74217089 43.36792212 18.50094838 45.59179688 16.73843384 C48.17609079 13.83716296 49 12.3697428 49 8.4375 C49 5 49 5 51 2.0625 C55.15080314 -0.79117716 57.0301078 -0.7099846 62 0 C64.5 1.4375 64.5 1.4375 66 4 C66.60332513 7.13154474 66.64831254 9.87318287 66 13 C64 15.5625 64 15.5625 61 17 C59.02734375 17.08984375 59.02734375 17.08984375 56.9375 17 C53.02475724 16.62990017 53.02475724 16.62990017 50.4375 18.75 C48.78091135 20.81391683 48.78091135 20.81391683 49.22851562 22.80395508 C50.1845591 25.52535099 51.47872568 27.87927314 52.90625 30.38671875 C53.48503906 31.40701172 54.06382813 32.42730469 54.66015625 33.47851562 C55.26730469 34.53748047 55.87445313 35.59644531 56.5 36.6875 C57.41072266 38.29334961 57.41072266 38.29334961 58.33984375 39.93164062 C60.79361581 44.73647424 60.79361581 44.73647424 64 49 C68.04048184 49.40380941 68.04048184 49.40380941 72 49 C73.37868281 47.37064759 74.71274093 45.70250393 76 44 C80.00803597 42.8340259 82.05282711 42.56759499 85.875 44.3125 C88 46 88 46 89 48 C89.68839635 54.99869622 89.68839635 54.99869622 86.9375 59 C83.22192774 61.52975133 81.4117517 61.7878128 77 61 C76.21625 60.175 75.4325 59.35 74.625 58.5 C71.94343763 55.94613107 71.30969995 55.47532543 67.8125 55.109375 C65.35322935 55.06112393 65.35322935 55.06112393 63 56 C59.71470843 59.49932975 57.61170426 63.527798 55.375 67.75 C54.73949219 68.86117187 54.10398437 69.97234375 53.44921875 71.1171875 C50.12607252 76.36375235 50.12607252 76.36375235 49.23291016 82.24316406 C50.36378462 84.83316173 51.49759405 85.68294423 54 87 C55.134375 86.95875 56.26875 86.9175 57.4375 86.875 C61 87 61 87 63.9375 89 C66.79117716 93.15080314 66.7099846 95.0301078 66 100 C64.5 102.5 64.5 102.5 62 104 C57.06667872 104.70476018 55.15562097 104.77041398 51 102 C48.42337892 98.13506838 49 95.56985872 49 91 C46.33942538 87.42775319 44.81057194 86.14885706 40.390625 85.3371582 C39.01092712 85.29771406 37.63019333 85.28705414 36.25 85.30078125 C35.14640137 85.29004829 35.14640137 85.29004829 34.02050781 85.27909851 C32.4707154 85.27134174 30.92081319 85.27629104 29.37109375 85.29321289 C27.00570878 85.31245356 24.64619464 85.27303049 22.28125 85.22851562 C20.77082985 85.22822525 19.26040434 85.23136559 17.75 85.23828125 C16.6966748 85.21535759 16.6966748 85.21535759 15.62207031 85.19197083 C12.83331543 85.25782911 10.63207788 85.49905162 8.40820312 87.26156616 C5.82390921 90.16283704 5 91.6302572 5 95.5625 C5 99 5 99 3 101.9375 C-1.15080314 104.79117716 -3.0301078 104.7099846 -8 104 C-10.5 102.5625 -10.5 102.5625 -12 100 C-12.60332513 96.86845526 -12.64831254 94.12681713 -12 91 C-10 88.4375 -10 88.4375 -7 87 C-5.02734375 86.91015625 -5.02734375 86.91015625 -2.9375 87 C0.97524276 87.37009983 0.97524276 87.37009983 3.5625 85.25 C5.21866392 83.18589061 5.21866392 83.18589061 4.77368164 81.19384766 C3.81447371 78.47392261 2.50614158 76.14397104 1.05859375 73.6484375 C0.47529297 72.63265625 -0.10800781 71.616875 -0.70898438 70.5703125 C-1.32064453 69.51585938 -1.93230469 68.46140625 -2.5625 67.375 C-3.7760164 65.28089003 -4.98585284 63.18464177 -6.19140625 61.0859375 C-6.99880249 59.6944751 -6.99880249 59.6944751 -7.82250977 58.27490234 C-9 56 -9 56 -9 54 C-12.07311278 54.07223128 -15.00885364 54.26524105 -18 55 C-19.38232443 56.62626404 -20.71937515 58.2925002 -22 60 C-25.83166611 61.11466651 -28.04255961 61.34042325 -31.8125 60 C-34.87247811 57.20230573 -35.44666546 55.0808422 -36 51 C-34.88788593 47.7254419 -33.92766429 45.76200995 -31.25 43.5625 C-27.82046336 42.70511584 -25.40138086 43.08891584 -22 44 C-21.38125 44.825 -20.7625 45.65 -20.125 46.5 C-17.64038822 49.42307268 -16.92041563 49.42945039 -13.25 49.8125 C-11.83447371 49.89697496 -10.41765314 49.96667909 -9 50 C-8.79761719 49.21882813 -8.59523438 48.43765625 -8.38671875 47.6328125 C-6.11645163 41.68535215 -2.50192553 36.51484642 0.91992188 31.16796875 C1.45552734 30.30558594 1.99113281 29.44320312 2.54296875 28.5546875 C3.03821045 27.77593262 3.53345215 26.99717773 4.04370117 26.19482422 C5.19036614 24.06204427 5.19036614 24.06204427 4.75512695 21.82470703 C3.65740264 19.17213947 2.54038246 18.3370434 0 17 C-1.134375 17.04125 -2.26875 17.0825 -3.4375 17.125 C-7 17 -7 17 -9.9375 15 C-12.79117716 10.84919686 -12.7099846 8.9698922 -12 4 C-9.21432761 -0.64278732 -5.0416721 -1.12813653 0 0 Z M6.26171875 30.08984375 C5.13523668 32.37429389 4.04401873 34.6767051 3 37 C2.16102517 38.39110796 1.29926777 39.76921915 0.3984375 41.12109375 C-0.26929688 42.21550781 -0.93703125 43.30992188 -1.625 44.4375 C-2.31851563 45.54996094 -3.01203125 46.66242187 -3.7265625 47.80859375 C-5.31762257 50.94906642 -5.31762257 50.94906642 -4.34375 54.23046875 C-2.89764991 57.21094829 -1.18739252 59.52095514 1 62 C1.7425 61.319375 1.7425 61.319375 2.5 60.625 C8.20742925 56.91517099 15.36258226 56.58384693 22 56 C22.14695312 57.01320313 22.14695312 57.01320313 22.296875 58.046875 C23.37079086 64.95967405 23.37079086 64.95967405 28 70 C30.84984298 65.34525646 32.7023817 61.29860806 34 56 C36.20994837 56.25732276 38.41794024 56.53147686 40.625 56.8125 C41.85476562 56.96332031 43.08453125 57.11414063 44.3515625 57.26953125 C48.02016288 58.00403689 50.75238425 59.17633885 54 61 C54.89707079 59.78684721 55.76701156 58.55360093 56.625 57.3125 C57.11226562 56.62800781 57.59953125 55.94351563 58.1015625 55.23828125 C59.2758216 53.00777455 59.2758216 53.00777455 58.24389648 50.70288086 C56.94845923 47.88800632 55.52423893 45.2112815 53.99609375 42.515625 C53.42052734 41.49855469 52.84496094 40.48148438 52.25195312 39.43359375 C51.65318359 38.38300781 51.05441406 37.33242188 50.4375 36.25 C49.53354492 34.65091797 49.53354492 34.65091797 48.61132812 33.01953125 C46.18180029 28.23966462 46.18180029 28.23966462 43 24 C38.57218821 23.51570231 34.14154253 23.34358634 29.69213867 23.21044922 C28.20039419 23.15391315 26.70937092 23.07224051 25.22045898 22.96435547 C16.82338395 22.36743805 11.10472121 22.21798362 6.26171875 30.08984375 Z " fill="#B8FF66" transform="translate(37,12)"/>
<path d="M0 0 C3.87915467 2.10823623 4.82731324 3.57547839 6.5 7.6875 C7.4615818 12.58698824 6.29422559 16.63495656 4 21 C1.24061594 24.06598229 -0.51702286 24.87063112 -4.5 25.9375 C-8.54692942 26.0097666 -9.92138622 25.57937911 -13 23 C-16.63707112 18.65572061 -18.29250123 14.63627378 -18 9 C-16.49214371 4.79387455 -14.85412986 2.2883896 -11 0 C-7.13394995 -1.28868335 -3.88909035 -0.95708083 0 0 Z " fill="#B8FF66" transform="translate(70,39)"/>
</svg>
